<?xml version="1.0" encoding="UTF-8"?><svg id="a" xmlns="http://www.w3.org/2000/svg" viewBox="0 0 452.08 314.99"><defs><style>.b{fill:#374c61;}.c{fill:#424243;}.d{fill:#4db487;}.e{fill:#146cd7;}.f{fill:#f9cf30;}</style></defs><path class="d" d="M188.97,274L28.97,1h57.5l126.52,215L341.47,0h57.5l-95,163c-11.56-6.19-23.72-11.37-35.99-16-5.68,24.78-6.93,52.48.99,77l-36,61c-15.66-1.88-29.24-5.99-44-11Z"/><path class="f" d="M322.97,174c7.26-38.12,29.5-62.97,60.28-84.22,4.89-3.37,50.36-32.73,52.71-30.78,12.11,36.1,19.11,71.04,14.87,109.36-3.63,32.83-17.01,72.52-50.19,85.81-19.6,7.85-28.43,3.96-44.67-7.17-1.64-1.12-5.9-4.8-9-7-24.79-17.56-29.77-35.72-24-66Z"/><polygon class="b" points="168.97 0 213.47 80.98 262.47 0 319.97 0 214.46 181.01 106.97 0 168.97 0"/><path class="e" d="M303.97,163c6.45,3.45,12.37,7.88,19,11-5.77,30.28-.79,48.44,24,66-3.13,3.71-8.18,6.7-12.33,9.17-5.64,3.36-23.32,13.7-28.67,13.83-11.88.3-23.76-12.68-29.17-22.33-2.05-3.65-6.65-13.02-7.83-16.67-7.92-24.53-6.67-52.22-.99-77,12.27,4.63,24.43,9.81,35.99,16Z"/><path class="c" d="M355.97,247c-8.64,3.63-17.24,6.63-25.67,10.83-23,11.46-41.98,30.81-68.33,35.18,13.28,15.43,41.69,18.76,61,17.99v2c-18.35,1.88-39.55.04-56.36-8.14-5.3-2.58-13.39-10.33-16.59-11.41-5.52-1.88-14.97-2.19-21.06-3.44-11.32-2.34-22.69-4.62-34-7-27.49-5.79-42.77-11.84-72.54-11.04-31.76.85-69,2.39-98.73,13.27-4.75,1.74-14.95,7.97-18.48,8.59-5.55.97-6.59-7.21-3.53-9.88,5.07-4.42,36.04-13.33,44.52-16.2s9.57-4.44,19.16-5.84c2.69-.39,7.8-2.63,10.05-1.95,1.28.39-.44,3.87,2.18,4.91,6.46,2.57,30.56-1.66,38.83-1.91,12.82-.37,30.05,1.67,42.06.06,2.62-.35,22.15-9.68,16.98-.02-.98,1.83-4.46,1.95-4.5,4.48.39,1.73,15.4,5.64,17.99,6.52,14.76,5.01,28.34,9.12,44,11s35.51,5.29,43.51-10.99l.5,4c1.12,1.17,23.32-10.56,26.37-12.18,1.4-.74,3.14-.42,2.62-2.82,5.34-.14,23.03-10.47,28.67-13.83,4.15-2.47,9.2-5.46,12.33-9.17,3.1,2.2,7.36,5.88,9,7Z"/><path class="d" d="M228.97,290l-15.49,24.99-18.51-31.99c11.31,2.38,22.68,4.66,34,7Z"/><path class="b" d="M322.97,311c2.17-.09,7.04-1.52,9.8-1.71,1.1-.08,4.08-1.19,3.21,1.2-.78,2.12-10.79,2.28-13.01,2.51v-2Z"/></svg>